<?xml version="1.0" encoding="UTF-8"?>
<svg id="Layer_1" data-name="Layer 1" xmlns="http://www.w3.org/2000/svg" xmlns:xlink="http://www.w3.org/1999/xlink" viewBox="0 0 1500 277.32">
  <defs>
    <style>
      .cls-1 {
        fill-rule: evenodd;
      }

      .cls-1, .cls-2, .cls-3 {
        fill: red;
      }

      .cls-4 {
        fill: #fff;
      }

      .cls-3 {
        clip-rule: evenodd;
      }

      .cls-5 {
        clip-path: url(#clippath);
      }
    </style>
    <clipPath id="clippath">
      <path class="cls-3" d="M263.96,180.26h-88.18v88.18h44.09c24.25,0,44.09-19.84,44.09-44.09v-44.09ZM136.29,268.45h19.09v-88.18h-19.09c-24.08,0-44.09-20.01-44.09-44.09,0-10.13,3.55-19.55,9.45-27.05-20.84,5.99-39.51,17.24-54.47,32.21-13.94,13.94-24.66,31.11-30.91,50.26,21.06,45.28,67.03,76.86,120.03,76.86Z"/>
    </clipPath>
  </defs>
  <path class="cls-1" d="M249.38,92.08h-44.09V3.89h88.18v44.09c0,24.25-19.85,44.09-44.09,44.09M184.9,3.89v88.18h-48.61c-38.05,0-72.65,15.57-97.72,40.64-12.01,12.01-21.83,26.2-28.81,41.9-3.73-12.18-5.74-25.09-5.74-38.45C4.02,63.42,63.54,3.89,136.29,3.89h48.61Z"/>
  <g>
    <path class="cls-1" d="M263.96,180.26h-88.18v88.18h44.09c24.25,0,44.09-19.84,44.09-44.09v-44.09ZM136.29,268.45h19.09v-88.18h-19.09c-24.08,0-44.09-20.01-44.09-44.09,0-10.13,3.55-19.55,9.45-27.05-20.84,5.99-39.51,17.24-54.47,32.21-13.94,13.94-24.66,31.11-30.91,50.26,21.06,45.28,67.03,76.86,120.03,76.86Z"/>
    <g class="cls-5">
      <rect class="cls-2" x="16.26" y="109.12" width="247.69" height="159.33"/>
    </g>
  </g>
  <rect class="cls-2" x="1214.04" y="234.39" width="106.95" height="34.05"/>
  <path class="cls-4" d="M1422.59,94.51c11.07,0,20.12,4.13,27.16,12.39,7.04,8.26,10.56,17.82,10.56,28.71s-3.33,20.87-9.99,28.85c-6.66,7.97-15.9,11.96-27.72,11.96s-21.06-3.99-27.72-11.96c-6.66-7.97-9.99-17.59-9.99-28.85s3.33-20.92,9.99-28.99c6.66-8.07,15.9-12.1,27.72-12.1M1422.31,63.27c-21.58,0-38.93,6.94-52.07,20.83-13.13,13.89-19.7,31.06-19.7,51.51s6.52,37.85,19.56,51.64c13.04,13.79,30.54,20.69,52.49,20.69s39.49-6.9,52.63-20.69c13.13-13.79,19.7-31,19.7-51.64s-6.71-37.62-20.12-51.51c-13.42-13.89-30.91-20.83-52.49-20.83ZM1286.94,8.11v196.73h34.05V8.11h-34.05ZM1214.04,8.11v196.73h34.05V8.11h-34.05ZM1077.55,119.28c2.44-8.82,7.13-15.53,14.07-20.12,6.94-4.6,15.2-6.9,24.76-6.9,10.13,0,18.39,2.3,24.77,6.9,6.38,4.6,10.13,11.3,11.26,20.12h-74.86ZM1185.34,147.71c2.63-27.77-2.44-49.02-15.2-63.75-12.76-14.73-31.05-22.09-54.88-22.09-22.32,0-40.2,6.75-53.61,20.26-13.42,13.51-20.12,30.96-20.12,52.34,0,22.52,6.8,40.48,20.41,53.9,13.6,13.42,32.22,20.12,55.86,20.12,11.07,0,22.04-1.92,32.93-5.77,10.88-3.85,19.8-9.43,26.74-16.75l-21.95-21.67c-3.75,3.94-9.19,7.09-16.32,9.43-7.13,2.35-14.07,3.52-20.83,3.52-11.82,0-21.39-2.72-28.71-8.16-7.32-5.44-11.54-12.57-12.66-21.39h108.36ZM948.37,30.63v35.74h-25.89v29.55h25.89v59.95c0,16.89,4.46,29.69,13.37,38.41,8.91,8.72,21.06,12.81,36.45,12.24,9.76-.19,19.23-2.16,28.43-5.91l-9.57-29.27c-5.63,2.81-11.17,4.22-16.61,4.22s-9.8-1.69-13.08-5.07c-3.28-3.37-4.92-8.25-4.92-14.63v-59.95h38.55v-29.55h-38.28V26.97l-34.34,3.66ZM789.36,268.45v-79.93c4.5,6.94,11.12,11.96,19.84,15.06,8.73,3.1,17.5,4.64,26.32,4.64,21.58,0,38.65-6.85,51.22-20.54,12.57-13.7,18.86-31.05,18.86-52.06s-6.61-38.14-19.84-51.93c-13.23-13.79-30.35-20.68-51.36-20.68-8.44,0-16.79,1.88-25.05,5.63s-14.92,9.29-19.98,16.61l-2.25-19.14h-32.08v202.36h34.34ZM831.85,175.01c-11.44,0-20.87-3.8-28.28-11.4-7.41-7.6-11.12-16.94-11.12-28s3.57-20.64,10.69-28.14c7.13-7.51,16.7-11.26,28.71-11.26s21.58,3.75,28.71,11.26c7.13,7.5,10.7,16.89,10.7,28.14s-3.71,20.41-11.12,28c-7.41,7.6-16.84,11.4-28.28,11.4ZM642.73,93.39c10.32,0,19,2.91,26.03,8.72,7.03,5.82,11.35,12.85,12.94,21.11,1.6,8.25,1.6,16.46,0,24.63-1.59,8.16-5.91,15.15-12.94,20.96-7.04,5.82-15.71,8.73-26.03,8.73-11.82,0-21.63-3.8-29.41-11.4-7.79-7.6-11.68-17.87-11.68-30.82s3.89-23.17,11.68-30.67c7.79-7.51,17.59-11.26,29.41-11.26ZM683.82,85.23c-3.94-6.75-9.94-12.2-18.01-16.32-8.07-4.13-16.79-6.19-26.17-6.19-21.02-.19-38.32,6.1-51.92,18.86-13.6,12.76-20.41,30.67-20.41,53.75s6.61,41.89,19.84,54.74c13.23,12.85,30.44,19.18,51.65,18.99,8.63-.19,17.35-2.44,26.18-6.75,8.82-4.31,15.1-10.22,18.86-17.73l1.68,20.27h32.37V66.09h-32.93l-1.12,19.14ZM529.59,154.46c-6.38,6.38-14.03,11.3-22.94,14.77-8.91,3.47-17.78,5.21-26.59,5.21-22.52,0-39.41-6.52-50.66-19.56-11.26-13.04-16.98-28.75-17.17-47.14-.19-18.38,5.53-34.38,17.17-47.98,11.63-13.6,28.52-20.41,50.66-20.41,19.14,0,34.99,6.19,47.56,18.58l24.76-23.92c-20.45-20.08-44.56-30.11-72.33-30.11-17.07,0-32.46,2.96-46.16,8.87-13.7,5.91-24.72,13.84-33.07,23.78-8.35,9.94-14.63,21.01-18.86,33.21-4.22,12.2-6.33,24.86-6.33,37.99s2.06,25.9,6.19,37.72c4.13,11.82,10.28,22.56,18.44,32.22,8.16,9.67,19.09,17.36,32.79,23.08,13.7,5.73,29.36,8.59,47,8.59,30.21,0,55.16-9.76,74.86-29.27l-25.33-25.61Z"/>
</svg>