<?xml version="1.0" encoding="UTF-8"?>
<svg id="Layer_1" data-name="Layer 1" xmlns="http://www.w3.org/2000/svg" xmlns:xlink="http://www.w3.org/1999/xlink" viewBox="0 0 1407.41 1290.74">
  <defs>
    <style>
      .cls-1 {
        fill-rule: evenodd;
      }

      .cls-1, .cls-2, .cls-3 {
        fill: red;
      }

      .cls-3 {
        clip-rule: evenodd;
      }

      .cls-4 {
        clip-path: url(#clippath);
      }
    </style>
    <clipPath id="clippath">
      <path class="cls-3" d="M1258,856.58h-424.26v424.26h212.13c116.68,0,212.14-95.46,212.14-212.14v-212.13ZM643.8,1280.84h91.86v-424.26h-91.85c-115.85,0-212.14-96.28-212.14-212.13,0-48.75,17.06-94.04,45.45-130.14-100.25,28.83-190.08,82.96-262.07,154.95-67.08,67.08-118.66,149.69-148.71,241.79,101.34,217.83,322.49,369.8,577.47,369.8Z"/>
    </clipPath>
  </defs>
  <path class="cls-1" d="M1187.87,432.31h-212.14V8.05h424.27v212.13c0,116.65-95.51,212.13-212.13,212.13M877.66,8.05v424.26h-233.86c-183.08,0-349.54,74.9-470.16,195.53-57.76,57.76-105.02,126.04-138.6,201.61-17.94-58.59-27.63-120.72-27.63-184.99C7.41,294.42,293.78,8.05,643.8,8.05h233.86Z"/>
  <g>
    <path class="cls-1" d="M1258,856.58h-424.26v424.26h212.13c116.68,0,212.14-95.46,212.14-212.14v-212.13ZM643.8,1280.84h91.86v-424.26h-91.85c-115.85,0-212.14-96.28-212.14-212.13,0-48.75,17.06-94.04,45.45-130.14-100.25,28.83-190.08,82.96-262.07,154.95-67.08,67.08-118.66,149.69-148.71,241.79,101.34,217.83,322.49,369.8,577.47,369.8Z"/>
    <g class="cls-4">
      <rect class="cls-2" x="66.33" y="514.3" width="1191.67" height="766.54"/>
    </g>
  </g>
</svg>